<svg version="1" xmlns="http://www.w3.org/2000/svg" width="516" height="516" viewBox="0 0 387.000000 387.000000"><path d="M183.4 14.1c-2.3 2.4-2.9 3.9-2.9 7.5 0 3.9.5 5 3.3 7.5 4.6 4.1 11.1 4.1 15.3 0 2.4-2.4 2.9-3.8 2.9-7.6s-.5-5.2-2.9-7.6c-2.5-2.4-3.8-2.9-7.8-2.9-4.2 0-5.4.5-7.9 3.1zM184.8 52c-4 3.1-5.3 7.3-3.9 12.1 1.5 4.9 5.1 7.4 10.9 7.4 3.7 0 4.8-.5 7.3-3.3 2.3-2.6 2.9-4.2 2.9-7.8 0-3.9-.5-5.1-3.1-7.5-3.9-3.6-10.2-4-14.1-.9zM137.1 60.6c-9 7.5-1.2 21.8 10 18.5 7.1-2.1 9.9-9.3 6.4-16.1-1.9-3.7-4.3-5-9.4-5-2.8 0-4.8.7-7 2.6zM232.1 59.6c-3.1 2.2-5.2 7.5-4.5 11.3.3 1.6 1.9 4.2 3.5 5.7 2.3 2.2 3.8 2.7 7.5 2.7 4 0 5.1-.4 7.6-3.1 4-4.6 4-11.2-.1-15.3-2.4-2.3-3.8-2.9-7.3-2.9-2.4 0-5.4.7-6.7 1.6zM49 80.3c-5.1 4-6.3 10-3 15.4 5.2 8.6 20 4.6 20-5.4 0-4.1-2.3-8.9-4.9-10.3-2.7-1.4-10.2-1.2-12.1.3zM323.4 80.8c-9.5 7.7-2 22.5 9.8 19.2 4.3-1.3 6.7-3.7 7.4-7.6 1.5-7.9-2.8-13.4-10.3-13.4-3 0-5.6.7-6.9 1.8zM96.3 82.9c-8.8 5.5-4.9 20.1 5.4 20.1 6.9 0 11.2-4.2 11.3-10.7 0-8.7-9.4-14-16.7-9.4zM274.4 82.9c-8.8 5.5-4.9 20.1 5.3 20.1 4.1 0 8.9-2.3 10.3-4.9.5-1.1 1-3.8 1-6 0-8.5-9.5-13.7-16.6-9.2zM185.4 90.9c-5.9 3.6-6.6 12.9-1.5 17.5 4.6 4.1 13.9 2.7 16.6-2.5 5.6-10.7-5-21.1-15.1-15zM218.2 94.5c-8.5 7.1-1.6 21 9.3 18.9 8.2-1.5 11.5-12.5 5.6-18.5-4-3.9-10.5-4.1-14.9-.4zM152.2 95.5c-4 1.8-6.6 7.3-5.7 12.1.9 4.8 5.6 8.4 11 8.4 9.4 0 14.1-11 7.8-18-3.4-3.7-8.4-4.7-13.1-2.5zM119.7 114.1c-2.5 1.4-4.7 6.3-4.7 10.2 0 10.8 15.9 14.2 20.6 4.4 3.6-7.6-1.6-15.7-9.9-15.7-2.3 0-5 .5-6 1.1zM247.1 115.6c-9 7.5-1.2 21.8 10 18.5 7.1-2.1 9.9-9.3 6.4-16.1-1.9-3.7-4.3-5-9.4-5-2.8 0-4.8.7-7 2.6zM65.1 119.4c-5.5 3.1-6.8 11.4-2.5 16.5 7.2 8.5 21.1 1.8 19-9.2-1.3-7.1-10-10.9-16.5-7.3zM306.1 119.4c-8.3 4.6-5.9 18.4 3.6 20.2 10.9 2.1 17.7-11.9 9.2-19-3.4-2.9-8.8-3.4-12.8-1.2zM186.2 129.5c-4 1.8-6.6 7.3-5.7 12.1 1.5 8.1 12.7 11.4 18.6 5.5 2.4-2.4 2.9-3.8 2.9-7.5 0-8.6-7.9-13.7-15.8-10.1zM100.4 137c-5.7 2.3-8.1 10.3-4.7 16 3.2 5.6 11.1 6.7 16.2 2.4 9.5-8 .1-23.1-11.5-18.4zM273.4 137c-3.7 1.5-6.4 5.9-6.4 10.4.1 12 16.4 14.8 21 3.6 3.6-8.7-5.7-17.6-14.6-14zM141.9 147.9c-2.4 2.4-2.9 3.8-2.9 7.6s.5 5.2 2.9 7.6c2.4 2.4 3.8 2.9 7.6 2.9 6.6 0 10.5-3.9 10.5-10.5 0-3.8-.5-5.2-2.9-7.6-2.4-2.4-3.8-2.9-7.6-2.9s-5.2.5-7.6 2.9zM225.9 147.9c-2.4 2.4-2.9 3.8-2.9 7.6s.5 5.2 2.9 7.6c2.4 2.4 3.8 2.9 7.6 2.9 6.6 0 10.5-3.9 10.5-10.5 0-3.8-.5-5.2-2.9-7.6-2.4-2.4-3.8-2.9-7.6-2.9s-5.2.5-7.6 2.9zM47.8 167.9c-2.9 2.6-3.3 3.5-3.3 8 0 6.6 3.1 10.1 9.9 10.8 4.2.5 4.8.3 8.1-3 2.9-2.9 3.5-4.2 3.5-7.7 0-3.4-.6-4.8-3.4-7.6-4.6-4.6-10.1-4.8-14.8-.5zM321.3 167c-3.9 2.3-5.6 7.4-4.2 12.6 1.7 5.9 9.5 9.2 15.2 6.3 3.8-1.9 5.7-5.2 5.7-9.7 0-5.4-1.2-7.7-5-9.7-3.9-2-7.9-1.9-11.7.5zM184.1 170.6c-9.4 7.9 0 22.7 11.3 18 4.5-1.9 6.6-5.2 6.6-10.4 0-3.5-.6-4.9-2.9-7.3-4-3.9-10.5-4.1-15-.3zM87.4 171c-5.6 2.2-8 10-5 15.9 2.9 5.5 11.4 6.8 16.5 2.5 9.5-8 .1-23.1-11.5-18.4zM282.4 171.8c-9 5.7-5.2 20.2 5.2 20.2 7.1 0 11.4-4.3 11.4-11.5 0-7.9-9.8-13-16.6-8.7zM144 208.1v33.2l-32 44.8c-17.6 24.6-32 45.2-32 45.6 0 .9 7 6.7 7.4 6.1.2-.1 15.2-21 33.2-46.3l32.9-46.1-.3-35.2-.3-35.2H144v33.1zM229 211v36l32.1 44.3c17.7 24.3 32.3 44.3 32.4 44.5.6.8 7.4-4.5 7-5.5-.2-.6-14.3-20.1-31.4-43.3L238 244.8V175h-9v36z"/><path d="M123.8 188.9c-2.9 2.6-3.3 3.5-3.3 8 0 4.2.5 5.5 2.8 7.8s3.6 2.8 7.8 2.8c4.5 0 5.4-.4 8-3.3 4.3-4.7 4.1-10.2-.5-14.8-4.6-4.6-10.1-4.8-14.8-.5zM245.8 187.6c-3.6 1.9-4.8 4.3-4.8 9.6.1 9 8.8 13.6 16.7 8.8 3.9-2.3 5.6-7.4 4.2-12.6-1.8-6.3-9.9-9.2-16.1-5.8zM87.4 205c-7.9 3.2-8.5 16.4-.9 19.8 9.9 4.5 19.7-4.8 15.1-14.5-2.4-5-8.9-7.5-14.2-5.3zM283.3 205.4c-7 3.2-8.2 13-2.2 18 5.2 4.4 14.1 2.8 16.7-2.9 4.5-9.9-4.7-19.5-14.5-15.1zM184.7 209.1c-9 7-2.6 21.6 8.6 19.5 9.9-1.9 11.9-15.9 3-20.5-3.4-1.7-8.8-1.3-11.6 1zM49.4 213.8c-9.3 5.9-5.2 20.2 5.8 20.2 3.2 0 4.7-.7 7.4-3.4 2.8-2.8 3.4-4.2 3.4-7.5 0-8.5-9.4-13.8-16.6-9.3zM322.2 213.3c-3.5 2-5.3 5.3-5.4 9.8-.1 10 11.6 14.6 18.8 7.4 3-3 3.3-10.8.6-14.1-3.5-4.3-9.4-5.6-14-3.1zM10.9 230.9c-2.4 2.4-2.9 3.8-2.9 7.6 0 5.7 2.1 9.1 6.6 10.5 4.4 1.5 8.6.5 11.8-2.7 2.1-2.1 2.6-3.5 2.6-7.5 0-4.1-.5-5.4-2.9-7.9-2.4-2.4-3.8-2.9-7.6-2.9s-5.2.5-7.6 2.9zM353.9 230.9c-2.4 2.5-2.9 3.8-2.9 7.9 0 4 .5 5.4 2.6 7.5 4.7 4.7 11.7 4.5 16.3-.4 1.5-1.7 2.1-3.6 2.1-7.2 0-4-.5-5.3-2.9-7.8-2.4-2.4-3.8-2.9-7.6-2.9s-5.2.5-7.6 2.9zM98.4 237.8c-7.1 5.7-5.4 16.4 3.1 19.2 7.3 2.4 14.5-3 14.5-10.9 0-2.4-.9-4.2-3.4-6.7-2.8-2.8-4.1-3.4-7.7-3.4-2.7 0-5.3.7-6.5 1.8zM273.4 239c-6.7 2.7-8.7 12.9-3.5 18.1 5.9 5.9 17.1 2.6 18.6-5.5 1.7-8.7-7-15.9-15.1-12.6zM185.4 247.9c-8.8 5.5-4.9 20.1 5.3 20.1 6.9 0 11.2-4.2 11.3-10.7 0-8.7-9.4-14-16.6-9.4zM64.7 258.1c-2.5 1.4-4.7 6.3-4.7 10.2 0 10.8 15.9 14.2 20.6 4.4 3.6-7.6-1.6-15.7-9.9-15.7-2.3 0-5 .5-6 1.1zM302.1 259.6c-9 7.5-1.2 21.8 10 18.5 7.1-2.1 9.9-9.3 6.4-16.1-1.9-3.7-4.3-5-9.4-5-2.8 0-4.8.7-7 2.6zM153.4 280.4c-4.3 1.9-6.4 5.3-6.4 10.4 0 6.2 4 10.2 10.3 10.2 8.6 0 13.8-7.7 10.3-15.2-2.6-5.5-8.7-7.8-14.2-5.4zM220 280.8c-5.7 2.8-7.6 9.2-4.5 15.2 2 3.8 4.3 5 9.7 5 4.6-.1 6.4-1 9.1-5 3.8-5.6.6-14.1-6-15.9-4.8-1.4-4.2-1.4-8.3.7zM189 285.7c-6.3 2-9.6 7.1-8.6 12.8 1.6 8.2 12.8 11.5 18.7 5.6 2.3-2.4 2.9-3.8 2.9-7.3 0-5.2-2.1-8.5-6.6-10.4-3.5-1.5-4-1.5-6.4-.7zM136.5 315.9c-4 1.7-6 5.1-6 10.2 0 6.4 3.2 9.9 9.9 10.6 4.2.5 4.8.3 8.1-3 2.9-2.9 3.5-4.2 3.5-7.7 0-3.4-.6-4.8-3.4-7.6-3.5-3.5-7.5-4.3-12.1-2.5zM235.8 316.6c-1.5.8-3.2 2.3-3.8 3.4-1.3 2.4-1.3 9.6 0 12.1 1.3 2.4 6.1 4.9 9.5 4.9 3.4 0 8.2-2.5 9.5-4.9 1.3-2.5 1.3-9.7 0-12.2-2.4-4.4-10.1-6.1-15.2-3.3zM184.1 327.6c-8.5 7.2-1.6 21 9.5 18.9 8.1-1.5 11.4-12.7 5.5-18.6-4-3.9-10.5-4.1-15-.3zM65.9 338.9c-2.4 2.4-2.9 3.8-2.9 7.6s.5 5.2 2.9 7.6c4.2 4.2 11 4.2 15.2 0 2.4-2.4 2.9-3.8 2.9-7.6s-.5-5.2-2.9-7.6c-2.4-2.4-3.8-2.9-7.6-2.9s-5.2.5-7.6 2.9zM298.9 338.9c-2.4 2.4-2.9 3.8-2.9 7.6s.5 5.2 2.9 7.6c4.2 4.2 11 4.2 15.2 0 2.4-2.4 2.9-3.8 2.9-7.6s-.5-5.2-2.9-7.6c-2.4-2.4-3.8-2.9-7.6-2.9s-5.2.5-7.6 2.9z"/><path d="M87.8 351.1c-2 4.7-2.8 4.1 10.7 6.8 29.1 5.8 57.1 8.4 91 8.3 32.6 0 63-2.7 92.3-8.3 14.2-2.6 13.4-2.3 11.7-5.6-.8-1.5-1.5-3.4-1.5-4.2 0-.9-.7-1.1-2.2-.8-1.3.4-8.8 1.7-16.8 3.1-57.5 9.8-117.5 9.5-170.7-.9-7-1.4-12.8-2.5-12.8-2.5s-.8 1.8-1.7 4.1z"/></svg>